HIERARCHY
ROOT mixamorig:Hips
{
	OFFSET -0.000008 104.274872 1.554316
	CHANNELS 6 Xposition Yposition Zposition Xrotation Yrotation Zrotation
	JOINT mixamorig:Spine
	{
		OFFSET -0.000005 10.181595 0.131519
		CHANNELS 6 Xposition Yposition Zposition Xrotation Yrotation Zrotation
		JOINT mixamorig:Spine1
		{
			OFFSET -0.000000 9.893959 -1.470707
			CHANNELS 6 Xposition Yposition Zposition Xrotation Yrotation Zrotation
			JOINT mixamorig:Spine2
			{
				OFFSET -0.000000 9.220757 -1.370641
				CHANNELS 6 Xposition Yposition Zposition Xrotation Yrotation Zrotation
				JOINT mixamorig:Neck
				{
					OFFSET 0.000001 16.740417 -2.049036
					CHANNELS 6 Xposition Yposition Zposition Xrotation Yrotation Zrotation
					JOINT mixamorig:Head
					{
						OFFSET 0.000000 9.617874 1.685006
						CHANNELS 6 Xposition Yposition Zposition Xrotation Yrotation Zrotation
						JOINT mixamorig:HeadTop_End
						{
							OFFSET 0.000002 22.037354 7.501101
							CHANNELS 6 Xposition Yposition Zposition Xrotation Yrotation Zrotation
							End Site
							{
								OFFSET 0.000168 2310.654297 -282.823242
							}
						}
					}
				}
				JOINT mixamorig:RightShoulder
				{
					OFFSET -4.569970 11.014908 -2.160885
					CHANNELS 6 Xposition Yposition Zposition Xrotation Yrotation Zrotation
					JOINT mixamorig:RightArm
					{
						OFFSET -10.592851 -0.524811 -2.232101
						CHANNELS 6 Xposition Yposition Zposition Xrotation Yrotation Zrotation
						JOINT mixamorig:RightForeArm
						{
							OFFSET -27.841511 0.000031 -0.000004
							CHANNELS 6 Xposition Yposition Zposition Xrotation Yrotation Zrotation
							JOINT mixamorig:RightHand
							{
								OFFSET -28.328831 -0.000015 0.000015
								CHANNELS 6 Xposition Yposition Zposition Xrotation Yrotation Zrotation
								JOINT mixamorig:RightHandThumb1
								{
									OFFSET -2.464806 -1.573990 2.681852
									CHANNELS 6 Xposition Yposition Zposition Xrotation Yrotation Zrotation
									JOINT mixamorig:RightHandThumb2
									{
										OFFSET -3.215179 -1.872803 1.924282
										CHANNELS 6 Xposition Yposition Zposition Xrotation Yrotation Zrotation
										JOINT mixamorig:RightHandThumb3
										{
											OFFSET -2.654831 -1.527969 1.512609
											CHANNELS 6 Xposition Yposition Zposition Xrotation Yrotation Zrotation
											JOINT mixamorig:RightHandThumb4
											{
												OFFSET -2.018814 -1.152008 1.108052
												CHANNELS 6 Xposition Yposition Zposition Xrotation Yrotation Zrotation
												End Site
												{
													OFFSET -188.809540 -114.533607 132.431396
												}
											}
										}
									}
								}
								JOINT mixamorig:RightHandIndex1
								{
									OFFSET -9.108284 -0.517868 2.259835
									CHANNELS 6 Xposition Yposition Zposition Xrotation Yrotation Zrotation
									JOINT mixamorig:RightHandIndex2
									{
										OFFSET -3.699989 0.000000 0.001215
										CHANNELS 6 Xposition Yposition Zposition Xrotation Yrotation Zrotation
										JOINT mixamorig:RightHandIndex3
										{
											OFFSET -2.850006 0.000031 -0.000522
											CHANNELS 6 Xposition Yposition Zposition Xrotation Yrotation Zrotation
											JOINT mixamorig:RightHandIndex4
											{
												OFFSET -2.772186 -0.000015 -0.000020
												CHANNELS 6 Xposition Yposition Zposition Xrotation Yrotation Zrotation
												End Site
												{
													OFFSET -277.218445 0.000000 -0.050231
												}
											}
										}
									}
								}
								JOINT mixamorig:RightHandMiddle1
								{
									OFFSET -9.532516 -0.000031 -0.000023
									CHANNELS 6 Xposition Yposition Zposition Xrotation Yrotation Zrotation
									JOINT mixamorig:RightHandMiddle2
									{
										OFFSET -3.700005 -0.000015 0.003713
										CHANNELS 6 Xposition Yposition Zposition Xrotation Yrotation Zrotation
										JOINT mixamorig:RightHandMiddle3
										{
											OFFSET -2.949974 0.000015 -0.002054
											CHANNELS 6 Xposition Yposition Zposition Xrotation Yrotation Zrotation
											JOINT mixamorig:RightHandMiddle4
											{
												OFFSET -2.946640 0.000000 -0.000156
												CHANNELS 6 Xposition Yposition Zposition Xrotation Yrotation Zrotation
												End Site
												{
													OFFSET -294.664337 0.000000 -0.113670
												}
											}
										}
									}
								}
								JOINT mixamorig:RightHandRing1
								{
									OFFSET -9.103600 -0.043076 -1.865134
									CHANNELS 6 Xposition Yposition Zposition Xrotation Yrotation Zrotation
									JOINT mixamorig:RightHandRing2
									{
										OFFSET -3.379288 0.000000 -0.001055
										CHANNELS 6 Xposition Yposition Zposition Xrotation Yrotation Zrotation
										JOINT mixamorig:RightHandRing3
										{
											OFFSET -2.889687 -0.000015 0.000379
											CHANNELS 6 Xposition Yposition Zposition Xrotation Yrotation Zrotation
											JOINT mixamorig:RightHandRing4
											{
												OFFSET -2.638809 -0.000015 0.000941
												CHANNELS 6 Xposition Yposition Zposition Xrotation Yrotation Zrotation
												End Site
												{
													OFFSET -263.880371 0.000000 0.516020
												}
											}
										}
									}
								}
								JOINT mixamorig:RightHandPinky1
								{
									OFFSET -8.076683 -0.486710 -3.806280
									CHANNELS 6 Xposition Yposition Zposition Xrotation Yrotation Zrotation
									JOINT mixamorig:RightHandPinky2
									{
										OFFSET -3.600014 -0.000015 -0.003747
										CHANNELS 6 Xposition Yposition Zposition Xrotation Yrotation Zrotation
										JOINT mixamorig:RightHandPinky3
										{
											OFFSET -2.099983 0.000000 -0.005739
											CHANNELS 6 Xposition Yposition Zposition Xrotation Yrotation Zrotation
											JOINT mixamorig:RightHandPinky4
											{
												OFFSET -2.115768 -0.000031 -0.003680
												CHANNELS 6 Xposition Yposition Zposition Xrotation Yrotation Zrotation
												End Site
												{
													OFFSET -211.577087 0.000000 -0.350686
												}
											}
										}
									}
								}
							}
						}
					}
				}
				JOINT mixamorig:LeftShoulder
				{
					OFFSET 4.570447 11.014725 -2.160855
					CHANNELS 6 Xposition Yposition Zposition Xrotation Yrotation Zrotation
					JOINT mixamorig:LeftArm
					{
						OFFSET 10.592371 -0.524597 -2.232119
						CHANNELS 6 Xposition Yposition Zposition Xrotation Yrotation Zrotation
						JOINT mixamorig:LeftForeArm
						{
							OFFSET 27.841532 -0.000031 0.000026
							CHANNELS 6 Xposition Yposition Zposition Xrotation Yrotation Zrotation
							JOINT mixamorig:LeftHand
							{
								OFFSET 28.328846 -0.000061 0.000022
								CHANNELS 6 Xposition Yposition Zposition Xrotation Yrotation Zrotation
								JOINT mixamorig:LeftHandThumb1
								{
									OFFSET 2.466141 -1.576172 2.681732
									CHANNELS 6 Xposition Yposition Zposition Xrotation Yrotation Zrotation
									JOINT mixamorig:LeftHandThumb2
									{
										OFFSET 3.217812 -1.872070 1.916482
										CHANNELS 6 Xposition Yposition Zposition Xrotation Yrotation Zrotation
										JOINT mixamorig:LeftHandThumb3
										{
											OFFSET 2.656029 -1.528778 1.514513
											CHANNELS 6 Xposition Yposition Zposition Xrotation Yrotation Zrotation
											JOINT mixamorig:LeftHandThumb4
											{
												OFFSET 2.020889 -1.154053 1.115139
												CHANNELS 6 Xposition Yposition Zposition Xrotation Yrotation Zrotation
												End Site
												{
													OFFSET 190.885437 -115.081749 130.048782
												}
											}
										}
									}
								}
								JOINT mixamorig:LeftHandIndex1
								{
									OFFSET 9.109314 -0.518021 2.259871
									CHANNELS 6 Xposition Yposition Zposition Xrotation Yrotation Zrotation
									JOINT mixamorig:LeftHandIndex2
									{
										OFFSET 3.699989 0.000000 -0.000322
										CHANNELS 6 Xposition Yposition Zposition Xrotation Yrotation Zrotation
										JOINT mixamorig:LeftHandIndex3
										{
											OFFSET 2.850006 0.000000 0.000352
											CHANNELS 6 Xposition Yposition Zposition Xrotation Yrotation Zrotation
											JOINT mixamorig:LeftHandIndex4
											{
												OFFSET 2.774864 -0.000031 -0.000027
												CHANNELS 6 Xposition Yposition Zposition Xrotation Yrotation Zrotation
												End Site
												{
													OFFSET 277.486267 0.000000 -0.009857
												}
											}
										}
									}
								}
								JOINT mixamorig:LeftHandMiddle1
								{
									OFFSET 9.533394 0.000061 0.000044
									CHANNELS 6 Xposition Yposition Zposition Xrotation Yrotation Zrotation
									JOINT mixamorig:LeftHandMiddle2
									{
										OFFSET 3.699989 -0.000015 -0.000231
										CHANNELS 6 Xposition Yposition Zposition Xrotation Yrotation Zrotation
										JOINT mixamorig:LeftHandMiddle3
										{
											OFFSET 2.949997 -0.000015 -0.000059
											CHANNELS 6 Xposition Yposition Zposition Xrotation Yrotation Zrotation
											JOINT mixamorig:LeftHandMiddle4
											{
												OFFSET 2.952896 0.000031 0.000063
												CHANNELS 6 Xposition Yposition Zposition Xrotation Yrotation Zrotation
												End Site
												{
													OFFSET 295.289337 0.000000 0.022810
												}
											}
										}
									}
								}
								JOINT mixamorig:LeftHandRing1
								{
									OFFSET 9.104523 -0.042999 -1.865074
									CHANNELS 6 Xposition Yposition Zposition Xrotation Yrotation Zrotation
									JOINT mixamorig:LeftHandRing2
									{
										OFFSET 3.150009 -0.000031 0.000043
										CHANNELS 6 Xposition Yposition Zposition Xrotation Yrotation Zrotation
										JOINT mixamorig:LeftHandRing3
										{
											OFFSET 2.949982 -0.000015 0.000040
											CHANNELS 6 Xposition Yposition Zposition Xrotation Yrotation Zrotation
											JOINT mixamorig:LeftHandRing4
											{
												OFFSET 2.644348 0.000000 0.000057
												CHANNELS 6 Xposition Yposition Zposition Xrotation Yrotation Zrotation
												End Site
												{
													OFFSET 264.434631 0.000000 0.012105
												}
											}
										}
									}
								}
								JOINT mixamorig:LeftHandPinky1
								{
									OFFSET 8.077789 -0.486847 -3.806259
									CHANNELS 6 Xposition Yposition Zposition Xrotation Yrotation Zrotation
									JOINT mixamorig:LeftHandPinky2
									{
										OFFSET 3.599953 0.000031 0.014727
										CHANNELS 6 Xposition Yposition Zposition Xrotation Yrotation Zrotation
										JOINT mixamorig:LeftHandPinky3
										{
											OFFSET 2.100021 0.000015 0.007705
											CHANNELS 6 Xposition Yposition Zposition Xrotation Yrotation Zrotation
											JOINT mixamorig:LeftHandPinky4
											{
												OFFSET 2.125504 0.000031 0.007517
												CHANNELS 6 Xposition Yposition Zposition Xrotation Yrotation Zrotation
												End Site
												{
													OFFSET 212.550781 0.000000 0.625752
												}
											}
										}
									}
								}
							}
						}
					}
				}
			}
		}
	}
	JOINT mixamorig:RightUpLeg
	{
		OFFSET -8.207787 -6.751648 -1.599560
		CHANNELS 6 Xposition Yposition Zposition Xrotation Yrotation Zrotation
		JOINT mixamorig:RightLeg
		{
			OFFSET -0.000002 -44.370117 0.345942
			CHANNELS 6 Xposition Yposition Zposition Xrotation Yrotation Zrotation
			JOINT mixamorig:RightFoot
			{
				OFFSET 0.000003 -44.423679 -3.043532
				CHANNELS 6 Xposition Yposition Zposition Xrotation Yrotation Zrotation
				JOINT mixamorig:RightToeBase
				{
					OFFSET -0.000002 -8.728671 10.710558
					CHANNELS 6 Xposition Yposition Zposition Xrotation Yrotation Zrotation
					JOINT mixamorig:RightToe_End
					{
						OFFSET -0.000001 -0.000679 9.278119
						CHANNELS 6 Xposition Yposition Zposition Xrotation Yrotation Zrotation
						End Site
						{
							OFFSET 0.000000 -0.067690 927.812134
						}
					}
				}
			}
		}
	}
	JOINT mixamorig:LeftUpLeg
	{
		OFFSET 8.207793 -6.751686 -1.599556
		CHANNELS 6 Xposition Yposition Zposition Xrotation Yrotation Zrotation
		JOINT mixamorig:LeftLeg
		{
			OFFSET -0.000004 -44.370014 0.346954
			CHANNELS 6 Xposition Yposition Zposition Xrotation Yrotation Zrotation
			JOINT mixamorig:LeftFoot
			{
				OFFSET -0.000001 -44.423672 -3.044401
				CHANNELS 6 Xposition Yposition Zposition Xrotation Yrotation Zrotation
				JOINT mixamorig:LeftToeBase
				{
					OFFSET -0.000002 -8.728669 10.710558
					CHANNELS 6 Xposition Yposition Zposition Xrotation Yrotation Zrotation
					JOINT mixamorig:LeftToe_End
					{
						OFFSET -0.000003 -0.000679 9.278133
						CHANNELS 6 Xposition Yposition Zposition Xrotation Yrotation Zrotation
						End Site
						{
							OFFSET 0.000000 -0.068021 927.813477
						}
					}
				}
			}
		}
	}
}
MOTION
Frames: 3
Frame Time: 0.033333
0.000006 104.270477 1.554256 0.000010 0.000003 -0.000113 -0.000005 10.181587 0.131522 0.000001 -0.000003 0.000084 -0.000000 9.893967 -1.470711 0.000001 0.000000 -0.000000 -0.000000 9.220802 -1.370642 0.000000 -0.000000 -0.000000 0.000001 16.740433 -2.049030 0.000000 -0.000000 -0.000000 0.000000 9.617859 1.685014 0.000000 0.000000 0.000000 0.000002 22.037384 7.501101 0.000000 -0.000000 0.000000 -4.569968 11.014880 -2.160881 0.000008 0.000001 -0.000038 -10.592875 -0.524771 -2.231908 74.925925 30.659988 -23.726969 -27.841530 0.000015 0.000525 -57.420943 105.884140 71.908505 -28.328846 0.000004 0.000020 -0.000318 -0.000046 0.000005 -2.464462 -1.573918 2.682401 -28.888364 -156.085436 30.723246 -3.215279 -1.872565 1.924660 157.763546 32.013616 3.829219 -2.654950 -1.527893 1.513098 152.534407 25.498804 -39.292104 -2.018832 -1.152021 1.108062 -0.000004 0.000001 0.000010 -9.108381 -0.517560 2.260131 99.957667 18.082176 -21.515584 -3.700074 0.000313 0.001507 95.318930 15.894253 -17.393534 -2.850093 0.000368 -0.000269 94.341858 12.210193 -13.163240 -2.772165 -0.000016 -0.000020 0.000000 0.000000 0.000001 -9.532570 0.000272 0.000234 93.344835 13.901788 -14.876581 -3.700057 0.000329 0.003966 92.986790 10.766562 -11.241175 -2.950046 0.000343 -0.001829 91.313564 10.701973 -10.941501 -2.946616 0.000002 -0.000156 -0.000003 0.000001 -0.000000 -9.103687 -0.042751 -1.864879 92.720358 15.481925 -16.179200 -3.379333 0.000327 -0.000802 93.961553 8.237976 -8.844190 -2.889756 0.000361 0.000615 94.544298 5.481288 -5.981741 -2.638815 -0.000003 0.000941 -0.000002 0.000000 -0.000001 -8.076735 -0.486367 -3.806042 86.383854 14.213161 -13.213607 -3.600034 0.000295 -0.003515 89.857183 6.300630 -5.940982 -2.100012 0.000319 -0.005516 89.559612 4.016789 -3.773493 -2.115763 -0.000027 -0.003681 0.000003 -0.000001 -0.000002 4.570446 11.014691 -2.160851 -0.000018 0.000010 -0.000021 10.592396 -0.524480 -2.232339 74.237859 -10.914904 8.271333 27.841829 0.000054 -0.000209 105.430547 -72.000869 87.318962 28.328838 -0.000029 0.000019 0.000022 -0.000089 0.000000 2.466067 -1.576173 2.681911 -30.797733 155.701552 -26.128711 3.217773 -1.871709 1.916377 155.915583 -32.446814 -7.713878 2.656100 -1.528593 1.514432 146.105068 -27.031734 36.551802 2.020891 -1.154086 1.115146 -0.000004 0.000007 0.000006 9.109400 -0.517841 2.259726 90.223206 -15.933387 15.982369 3.700040 0.000167 -0.000476 86.873210 -15.250243 14.465127 2.850048 0.000182 0.000199 84.764000 -12.738930 11.631711 2.774899 -0.000016 -0.000027 -0.000000 0.000001 -0.000002 9.533475 0.000222 -0.000096 90.506242 -14.884022 15.005791 3.700035 0.000190 -0.000373 90.627683 -13.727599 13.874599 2.950062 0.000175 -0.000201 89.395394 -17.299962 17.124123 2.952879 -0.000017 0.000063 -0.000001 0.000002 0.000001 9.104590 -0.042830 -1.865222 87.466562 -13.428583 12.854353 3.150053 0.000196 -0.000095 93.364048 -12.857171 13.629959 2.950034 0.000185 -0.000063 94.650678 -14.979194 16.232935 2.644320 0.000033 0.000058 0.000001 0.000000 -0.000001 8.077856 -0.486720 -3.806391 77.751534 -15.474369 12.974772 3.600010 0.000177 0.014544 78.132119 -12.975452 10.962415 2.100029 0.000177 0.007531 81.439487 -12.900428 11.536935 2.125488 -0.000031 0.007515 -0.000000 0.000001 0.000000 -8.207786 -6.751667 -1.599560 -0.077001 -0.000003 0.000080 -0.000002 -44.370110 0.345938 0.153719 -0.000000 -0.000000 0.000000 -44.423679 -3.043532 -0.076700 0.000000 -0.000002 -0.000006 -8.728667 10.710559 -0.000009 -0.000000 -0.000000 -0.000001 -0.000679 9.278123 0.000000 -0.000000 -0.000000 8.207792 -6.751710 -1.599556 -0.074518 -0.000003 0.000081 -0.000002 -44.370014 0.346960 0.148822 0.000002 0.000000 -0.000001 -44.423664 -3.044403 -0.074314 0.000000 -0.000002 -0.000004 -8.728671 10.710558 0.000007 -0.000000 -0.000000 0.000000 -0.000680 9.278137 -0.000000 0.000000 -0.000001 
0.000006 104.270477 1.554256 0.000010 0.000003 -0.000113 -0.000005 10.181587 0.131522 0.000001 -0.000003 0.000084 -0.000000 9.893967 -1.470711 0.000001 0.000000 -0.000000 -0.000000 9.220802 -1.370642 0.000000 -0.000000 -0.000000 0.000001 16.740433 -2.049030 0.000000 -0.000000 -0.000000 0.000000 9.617859 1.685014 0.000000 0.000000 0.000000 0.000002 22.037384 7.501101 0.000000 -0.000000 0.000000 -4.569968 11.014880 -2.160881 0.000008 0.000001 -0.000038 -10.592876 -0.524762 -2.231904 74.067712 29.275280 -22.295419 -27.841520 0.000030 0.000547 -55.054152 104.932586 68.303709 -28.328821 0.000005 0.000037 -0.000320 -0.000042 0.000007 -2.464416 -1.573784 2.682329 -47.056769 -163.479704 -7.798177 -3.215268 -1.872546 1.924635 151.183492 32.851284 15.981833 -2.654959 -1.527860 1.513070 148.497725 27.373534 -30.100866 -2.018827 -1.151998 1.108073 -0.000002 -0.000006 0.000002 -9.108374 -0.517552 2.260132 96.060095 15.524417 -17.286401 -3.700070 0.000315 0.001508 93.632222 13.207539 -14.039119 -2.850054 0.000374 -0.000290 92.608049 9.905265 -10.363312 -2.772170 -0.000003 -0.000020 0.000000 -0.000001 0.000002 -9.532572 0.000276 0.000236 92.500548 13.788251 -14.542429 -3.700082 0.000318 0.003937 91.862786 11.001870 -11.266650 -2.950061 0.000344 -0.001811 93.776045 10.420534 -11.119166 -2.946635 0.000002 -0.000157 -0.000000 0.000002 0.000001 -9.103691 -0.042743 -1.864867 91.035691 15.245059 -15.475166 -3.379312 0.000324 -0.000819 91.962289 8.157503 -8.458371 -2.889743 0.000362 0.000659 98.787444 5.349134 -6.289878 -2.638778 -0.000014 0.000944 0.000001 0.000001 0.000003 -8.076734 -0.486376 -3.806042 85.456820 14.608456 -13.368206 -3.600014 0.000288 -0.003529 87.882507 4.966665 -4.460525 -2.099983 0.000336 -0.005492 92.695141 2.174539 -2.061122 -2.115771 -0.000038 -0.003680 -0.000002 0.000002 -0.000002 4.570446 11.014691 -2.160851 -0.000018 0.000010 -0.000021 10.592395 -0.524483 -2.232362 73.507712 -11.430258 8.549207 27.841835 0.000054 -0.000193 106.214790 -72.777967 88.948502 28.328831 -0.000044 0.000018 0.000022 -0.000090 0.000000 2.466259 -1.576065 2.681839 6.484088 165.016196 -95.835081 3.217813 -1.871706 1.916395 165.967272 -30.521721 6.346348 2.656106 -1.528662 1.514482 146.120136 -25.411843 53.607440 2.020894 -1.154072 1.115147 0.000002 0.000000 0.000004 9.109396 -0.517855 2.259754 92.210675 -20.586962 21.365325 3.700040 0.000174 -0.000476 88.132438 -12.766569 12.376628 2.850040 0.000214 0.000195 86.021008 -9.624598 8.979946 2.774891 -0.000029 -0.000027 0.000002 0.000001 -0.000002 9.533470 0.000207 -0.000073 91.171906 -18.446012 18.811224 3.700051 0.000205 -0.000368 92.107690 -9.621150 9.977270 2.950044 0.000192 -0.000215 91.929859 -10.456144 10.815268 2.952844 -0.000031 0.000055 -0.000000 0.000002 -0.000000 9.104608 -0.042837 -1.865215 89.773739 -17.213941 17.149061 3.150049 0.000221 -0.000112 92.649938 -10.380671 10.871216 2.950013 0.000207 -0.000088 93.399832 -10.067044 10.681227 2.644326 0.000046 0.000053 0.000001 0.000001 -0.000000 8.077856 -0.486717 -3.806390 81.351077 -18.883110 16.785583 3.600019 0.000176 0.014574 82.986846 -15.542312 14.228849 2.100038 0.000187 0.007558 85.039127 -12.473284 11.889830 2.125496 -0.000003 0.007517 -0.000000 0.000002 0.000000 -8.207786 -6.751667 -1.599560 -0.077001 -0.000003 0.000080 -0.000002 -44.370110 0.345938 0.153719 -0.000000 -0.000000 0.000000 -44.423679 -3.043532 -0.076700 0.000000 -0.000002 -0.000006 -8.728667 10.710559 -0.000009 -0.000000 -0.000000 -0.000001 -0.000679 9.278123 0.000000 -0.000000 -0.000000 8.207792 -6.751710 -1.599556 -0.074518 -0.000003 0.000081 -0.000002 -44.370014 0.346960 0.148822 0.000002 0.000000 -0.000001 -44.423664 -3.044403 -0.074314 0.000000 -0.000002 -0.000004 -8.728671 10.710558 0.000007 -0.000000 -0.000000 0.000000 -0.000680 9.278137 -0.000000 0.000000 -0.000001 
0.000006 104.270477 1.554256 0.000010 0.000003 -0.000113 -0.000005 10.181587 0.131522 0.000001 -0.000003 0.000084 -0.000000 9.893967 -1.470711 0.000001 0.000000 -0.000000 -0.000000 9.220802 -1.370642 0.000000 -0.000000 -0.000000 0.000001 16.740433 -2.049030 0.000000 -0.000000 -0.000000 0.000000 9.617859 1.685014 0.000000 0.000000 0.000000 0.000002 22.037384 7.501101 0.000000 -0.000000 0.000000 -4.569968 11.014880 -2.160881 0.000008 0.000001 -0.000038 -10.592867 -0.524794 -2.231858 73.823943 39.057218 -29.836206 -27.841541 -0.000005 0.000568 -53.624461 102.873447 64.744565 -28.328808 0.000018 0.000034 -0.000323 -0.000042 0.000005 -2.464412 -1.573762 2.682323 -48.372117 -165.294813 -11.125810 -3.215269 -1.872546 1.924644 151.968362 32.282992 10.879327 -2.654949 -1.527860 1.513062 147.671681 27.460111 -30.408456 -2.018831 -1.151994 1.108069 -0.000003 -0.000002 0.000004 -9.108366 -0.517539 2.260112 96.390683 14.764840 -16.539395 -3.700057 0.000315 0.001483 93.886537 12.643518 -13.498711 -2.850085 0.000367 -0.000275 93.098525 9.640716 -10.173006 -2.772172 0.000001 -0.000021 -0.000001 -0.000001 0.000001 -9.532579 0.000282 0.000219 92.731716 12.916286 -13.686001 -3.700066 0.000338 0.003951 92.170022 10.686885 -11.000308 -2.950049 0.000344 -0.001825 94.076253 10.436789 -11.194783 -2.946631 0.000001 -0.000159 0.000001 -0.000001 -0.000000 -9.103682 -0.042747 -1.864876 91.665756 14.233455 -14.604264 -3.379312 0.000338 -0.000816 92.114636 7.786915 -8.096362 -2.889738 0.000360 0.000640 98.445921 5.477092 -6.400478 -2.638798 -0.000015 0.000943 -0.000001 -0.000000 0.000002 -8.076721 -0.486366 -3.806048 86.354375 13.635668 -12.664878 -3.600034 0.000291 -0.003536 88.640624 4.293649 -3.865937 -2.099988 0.000333 -0.005479 92.807647 1.977157 -1.858582 -2.115779 -0.000037 -0.003678 -0.000002 0.000001 -0.000008 4.570446 11.014691 -2.160851 -0.000018 0.000010 -0.000021 10.592435 -0.524467 -2.232377 73.149045 -25.133027 18.783056 27.841825 0.000044 -0.000174 107.320549 -74.769541 92.177098 28.328846 -0.000028 0.000017 0.000025 -0.000089 0.000000 2.466256 -1.575987 2.681826 19.007766 173.121021 -117.280222 3.217851 -1.871771 1.916396 169.084188 -24.862536 26.691724 2.656109 -1.528647 1.514461 147.098574 -25.526087 49.412484 2.020883 -1.154082 1.115143 -0.000000 -0.000000 0.000003 9.109416 -0.517862 2.259741 94.246652 -22.492779 24.161687 3.700066 0.000172 -0.000465 91.449225 -13.992127 14.364405 2.850053 0.000229 0.000191 91.101398 -10.578853 10.781695 2.774876 -0.000046 -0.000024 0.000001 0.000001 -0.000002 9.533492 0.000210 -0.000088 91.515792 -20.655085 21.187044 3.700053 0.000216 -0.000369 96.127003 -10.769077 11.975624 2.950043 0.000215 -0.000217 97.099404 -10.247335 11.597305 2.952858 -0.000016 0.000062 0.000003 -0.000001 0.000000 9.104616 -0.042854 -1.865218 90.219989 -19.851791 19.928648 3.150059 0.000217 -0.000098 96.544874 -12.703006 14.230827 2.950032 0.000215 -0.000094 97.371423 -10.286845 11.696118 2.644317 0.000045 0.000060 0.000001 0.000000 0.000000 8.077876 -0.486720 -3.806392 81.917621 -21.000118 18.812829 3.600024 0.000183 0.014559 82.924480 -17.711271 16.148741 2.100043 0.000197 0.007555 84.855135 -13.239181 12.557176 2.125510 -0.000030 0.007513 0.000001 0.000001 0.000000 -8.207786 -6.751667 -1.599560 -0.077001 -0.000003 0.000080 -0.000002 -44.370110 0.345938 0.153719 -0.000000 -0.000000 0.000000 -44.423679 -3.043532 -0.076700 0.000000 -0.000002 -0.000006 -8.728667 10.710559 -0.000009 -0.000000 -0.000000 -0.000001 -0.000679 9.278123 0.000000 -0.000000 -0.000000 8.207792 -6.751710 -1.599556 -0.074518 -0.000003 0.000081 -0.000002 -44.370014 0.346960 0.148822 0.000002 0.000000 -0.000001 -44.423664 -3.044403 -0.074314 0.000000 -0.000002 -0.000004 -8.728671 10.710558 0.000007 -0.000000 -0.000000 0.000000 -0.000680 9.278137 -0.000000 0.000000 -0.000001 
